<svg width="426" height="278" viewBox="0 0 426 278" xmlns="http://www.w3.org/2000/svg"><g id="Page-1" stroke="none" stroke-width="1" fill="none" fill-rule="evenodd"><g id="GoBarber"><rect id="Rectangle" fill="#312E38" x="0" y="0" width="426" height="278" rx="4"/><g id="logo" transform="translate(17 15)" fill-rule="nonzero"><path id="Path" fill="#999591" d="M93.858 230.901v-1.608h6.126v1.608l-1.91.355v6.37h8.27v-6.37l-1.91-.355v-1.608h6.126v1.608l-1.91.355v14.527l1.91.355v1.595h-6.126v-1.595l1.91-.355v-6.193h-8.27v6.193l1.91.355v1.595h-6.126v-1.595l1.91-.355v-14.527z"/><path d="M120.773 247.733a18.4 18.4 0 0 1-.164-.999c-.04-.296-.067-.592-.082-.886a5.759 5.759 0 0 1-1.675 1.543 4.02 4.02 0 0 1-2.132.609c-1.32 0-2.323-.346-3.01-1.038-.687-.702-1.03-1.684-1.03-2.952 0-1.3.484-2.3 1.452-3.002.976-.709 2.311-1.064 4.005-1.064h2.378v-1.596c0-.801-.234-1.436-.703-1.899-.468-.473-1.12-.71-1.956-.71-.577 0-1.089.081-1.534.24-.437.161-.793.382-1.066.66l-.246 1.443h-1.78v-2.66c.578-.498 1.277-.894 2.097-1.19a7.633 7.633 0 0 1 2.67-.455c1.437 0 2.6.396 3.49 1.19.89.794 1.335 1.929 1.335 3.407v7.118c.008.169.02.337.035.507l.937.14v1.594h-3.021zm-3.713-1.822c.765 0 1.464-.199 2.096-.596.633-.396 1.086-.874 1.359-1.431v-2.254h-2.46c-.944 0-1.694.235-2.248.709-.547.472-.82 1.047-.82 1.723 0 .6.172 1.058.515 1.38.344.311.863.469 1.558.469zM125.715 246.138l1.91-.355v-9.79l-1.91-.354v-1.61h4.217v11.754l1.909.355v1.595h-6.126v-1.595zm4.217-15.616h-2.308v-2.547h2.308v2.547z" id="Shape" fill="#999591"/><path d="M133.61 235.639v-1.61h3.97l.222 1.99c.36-.702.8-1.25 1.324-1.648a2.957 2.957 0 0 1 1.815-.594c.18 0 .363.017.55.05.196.026.344.056.446.089l-.305 2.317-1.312-.076c-.609 0-1.12.157-1.534.468-.414.306-.734.735-.96 1.292v7.866l1.909.355v1.595h-6.126v-1.595l1.91-.355v-9.79l-1.91-.354zM148.999 246.05a2.96 2.96 0 0 0 2.015-.761c.585-.515.878-1.144.878-1.886h2.073l.023.076c.04 1.182-.449 2.233-1.464 3.153-1.007.913-2.182 1.368-3.525 1.368-1.843 0-3.252-.65-4.228-1.95-.968-1.302-1.452-2.934-1.452-4.901v-.533c0-1.951.488-3.576 1.464-4.877.976-1.309 2.381-1.962 4.216-1.962 1.015 0 1.925.181 2.729.544.812.363 1.483.86 2.014 1.494l.106 3.04h-1.839l-.504-2.154a3.029 3.029 0 0 0-1.054-.696 3.768 3.768 0 0 0-1.452-.266c-1.21 0-2.077.474-2.6 1.42-.515.936-.773 2.089-.773 3.457v.533c0 1.4.258 2.57.773 3.507.515.929 1.382 1.393 2.6 1.393zM165.302 245.707c-.398.735-.913 1.301-1.546 1.697-.624.398-1.346.596-2.166.596-1.375 0-2.448-.477-3.221-1.43-.773-.956-1.16-2.442-1.16-4.46v-6.118l-1.452-.353v-1.61h3.76v8.106c0 1.462.199 2.467.597 3.015.398.55 1.019.823 1.862.823.82 0 1.495-.177 2.026-.53.54-.365.945-.876 1.218-1.535v-7.916l-1.698-.353v-1.61h4.006v11.754l1.452.355v1.595h-3.525l-.153-2.026zM174.835 230.723v3.306h2.402v1.85h-2.402v8.321c0 .643.121 1.094.364 1.355.25.263.578.393.984.393.203 0 .43-.017.679-.05.257-.043.472-.086.644-.128l.316 1.71c-.218.154-.537.276-.96.368a5.363 5.363 0 0 1-1.264.152c-.938 0-1.684-.304-2.238-.912-.554-.617-.83-1.58-.83-2.888v-8.32h-2.004v-1.851h2.003v-3.306h2.306zM189.289 238.335h-1.733l-.375-1.645a2.98 2.98 0 0 0-1.066-.685 3.679 3.679 0 0 0-1.44-.266c-.82 0-1.43.194-1.828.583a1.896 1.896 0 0 0-.597 1.406c0 .54.175.966.527 1.28.351.312 1.066.59 2.144.836 1.6.37 2.79.877 3.571 1.52.782.632 1.172 1.485 1.172 2.557 0 1.216-.457 2.2-1.371 2.952-.906.751-2.093 1.127-3.56 1.127-.96 0-1.823-.118-2.589-.355a6.738 6.738 0 0 1-2.048-1.052l-.012-3.127h1.733l.433 1.836c.266.262.624.451 1.078.57.46.118.93.177 1.405.177.82 0 1.46-.177 1.92-.53.47-.365.703-.837.703-1.42 0-.548-.194-1.002-.585-1.355-.383-.355-1.113-.663-2.19-.925-1.538-.363-2.698-.857-3.48-1.481-.78-.626-1.17-1.47-1.17-2.534 0-1.114.437-2.065 1.312-2.85.882-.785 2.027-1.177 3.432-1.177.96 0 1.822.135 2.588.405.765.27 1.402.646 1.908 1.127l.118 3.026z" id="Path" fill="#999591"/><path d="M197.616 242.77c0-1.031.274-1.93.82-2.699.554-.777 1.378-1.554 2.472-2.33-.61-.836-1.063-1.58-1.36-2.23a4.887 4.887 0 0 1-.445-2.026c0-1.427.379-2.525 1.136-3.293.766-.777 1.816-1.166 3.152-1.166 1.233 0 2.236.385 3.009 1.153.774.768 1.16 1.694 1.16 2.774 0 .828-.207 1.546-.621 2.153-.406.6-1.012 1.216-1.815 1.849l-1.278 1.014 3.983 5.18c.32-.55.57-1.157.75-1.825.18-.666.27-1.371.27-2.115h2.06c0 1.107-.151 2.132-.457 3.078a8.3 8.3 0 0 1-1.323 2.546l2.168 2.838-.024.062h-2.683l-.995-1.291a6.996 6.996 0 0 1-2.074 1.166 7.175 7.175 0 0 1-2.353.392c-1.694 0-3.045-.485-4.053-1.457-1-.971-1.5-2.23-1.5-3.773zm5.552 3.28c.562 0 1.117-.102 1.663-.304a5.793 5.793 0 0 0 1.547-.9l-4.229-5.51-.469.367c-.71.576-1.182 1.124-1.417 1.647-.227.524-.34.996-.34 1.42 0 .953.278 1.738.833 2.354.554.618 1.357.925 2.412.925zm-1.757-12.591c0 .448.106.916.317 1.406.21.481.527 1.009.948 1.584l1.616-1.204c.445-.32.747-.667.902-1.039.164-.379.245-.797.245-1.253 0-.516-.19-.971-.573-1.367-.375-.398-.866-.596-1.475-.596-.633 0-1.12.24-1.465.722-.343.473-.515 1.055-.515 1.747z" id="Shape" fill="#999591"/><path d="M231.009 234.74h-1.747l-.433-2.636c-.352-.32-.819-.587-1.406-.798-.585-.21-1.264-.316-2.038-.316-1.225 0-2.166.283-2.821.847-.657.56-.984 1.289-.984 2.192 0 .803.33 1.475.994 2.015.672.531 1.754 1 3.246 1.405 1.794.481 3.157 1.192 4.087 2.128.936.937 1.405 2.099 1.405 3.483 0 1.487-.563 2.682-1.687 3.585-1.115.903-2.58 1.355-4.392 1.355-1.311 0-2.478-.231-3.501-.696-1.015-.464-1.842-1.073-2.484-1.825v-3.433h1.735l.443 2.649c.445.396.978.721 1.593.975.618.253 1.356.38 2.214.38 1.163 0 2.081-.267 2.753-.798.679-.533 1.018-1.255 1.018-2.166 0-.846-.291-1.55-.878-2.115-.585-.576-1.62-1.057-3.103-1.444-1.804-.464-3.213-1.149-4.228-2.052-1.015-.903-1.523-2.04-1.523-3.407 0-1.444.566-2.643 1.699-3.598 1.13-.963 2.603-1.444 4.414-1.444 1.196 0 2.28.224 3.256.672.984.439 1.774.975 2.368 1.608v3.433zM233.175 246.138l1.908-.355v-15.844l-1.908-.356v-1.608h4.216v7.879a4.758 4.758 0 0 1 1.605-1.533 4.154 4.154 0 0 1 2.108-.544c1.358 0 2.412.439 3.162 1.316.75.879 1.124 2.23 1.124 4.053v6.637l1.909.355v1.595h-6.125v-1.595l1.909-.355v-6.661c0-1.133-.227-1.967-.68-2.508-.444-.54-1.111-.81-2.002-.81a3.19 3.19 0 0 0-1.734.492c-.515.322-.94.76-1.276 1.318v8.169l1.909.355v1.595h-6.125v-1.595z" id="Path" fill="#999591"/><path d="M257.243 247.733a18.9 18.9 0 0 1-.164-.999c-.04-.296-.066-.592-.082-.886a5.755 5.755 0 0 1-1.675 1.543 4.022 4.022 0 0 1-2.132.609c-1.318 0-2.323-.346-3.01-1.038-.686-.702-1.03-1.684-1.03-2.952 0-1.3.484-2.3 1.453-3.002.975-.709 2.31-1.064 4.005-1.064h2.377v-1.596c0-.801-.233-1.436-.702-1.899-.47-.473-1.121-.71-1.957-.71-.576 0-1.088.081-1.533.24-.439.161-.793.382-1.066.66l-.246 1.443h-1.78v-2.66c.578-.498 1.275-.894 2.096-1.19a7.64 7.64 0 0 1 2.67-.455c1.437 0 2.6.396 3.49 1.19.89.794 1.336 1.929 1.336 3.407v7.118c.007.169.019.337.034.507l.938.14v1.594h-3.022zm-3.713-1.822c.765 0 1.465-.199 2.096-.596.633-.396 1.086-.874 1.36-1.431v-2.254h-2.46c-.945 0-1.694.235-2.248.709-.548.472-.82 1.047-.82 1.723 0 .6.172 1.058.514 1.38.343.311.863.469 1.558.469z" id="Shape" fill="#999591"/><path id="Path" fill="#999591" d="M266.344 235.639l-1.523.252 2.611 7.802.212.989h.07l.221-.989 2.532-7.802-1.536-.252v-1.61h4.896v1.61l-1.043.189-4.25 11.905h-1.745l-4.3-11.905-1.042-.19v-1.61h4.897z"/><path d="M281.02 248c-1.766 0-3.172-.633-4.217-1.9-1.039-1.274-1.559-2.925-1.559-4.951v-.56c0-1.948.536-3.57 1.605-4.863 1.078-1.3 2.35-1.949 3.819-1.949 1.702 0 2.99.557 3.865 1.671.882 1.114 1.323 2.6 1.323 4.459v1.558h-8.222l-.035.063c.023 1.318.331 2.402.925 3.255.593.844 1.426 1.266 2.495 1.266.78 0 1.464-.118 2.049-.355a4.738 4.738 0 0 0 1.535-1l.902 1.622c-.454.472-1.054.873-1.805 1.203-.741.32-1.635.481-2.68.481zm-.352-12.261c-.774 0-1.433.355-1.98 1.064-.546.701-.882 1.584-1.007 2.648l.022.063h5.846v-.33c0-.978-.243-1.798-.727-2.457-.484-.659-1.202-.988-2.154-.988z" id="Shape" fill="#999591"/><path d="M297.837 238.335h-1.733l-.375-1.645a2.965 2.965 0 0 0-1.066-.685 3.673 3.673 0 0 0-1.44-.266c-.82 0-1.43.194-1.827.583a1.89 1.89 0 0 0-.598 1.406c0 .54.175.966.527 1.28.351.312 1.066.59 2.144.836 1.601.37 2.792.877 3.571 1.52.781.632 1.172 1.485 1.172 2.557 0 1.216-.457 2.2-1.37 2.952-.905.751-2.092 1.127-3.561 1.127-.96 0-1.823-.118-2.587-.355a6.728 6.728 0 0 1-2.05-1.052l-.013-3.127h1.733l.434 1.836c.266.262.626.451 1.078.57.46.118.93.177 1.405.177.82 0 1.46-.177 1.92-.53.47-.365.703-.837.703-1.42 0-.548-.194-1.002-.585-1.355-.382-.355-1.112-.663-2.19-.925-1.538-.363-2.698-.857-3.478-1.481-.78-.626-1.171-1.47-1.171-2.534 0-1.114.436-2.065 1.311-2.85.882-.785 2.027-1.177 3.432-1.177.96 0 1.823.135 2.587.405.766.27 1.402.646 1.91 1.127l.117 3.026z" id="Path" fill="#999591"/><path d="M141.808 16.846l1.265-.19L149.034 0h1.98l5.856 16.656 1.253.19v1.596h-4.896v-1.596l1.289-.241-1.125-3.394h-6.828l-1.16 3.394 1.289.24v1.597h-4.884v-1.596zm5.47-5.725h5.41l-2.646-7.917h-.07l-2.695 7.917z" id="Shape" fill="#999591"/><path id="Path" fill="#999591" d="M162.82 6.346l-1.453.278 1.652 6.827.269 1.66h.07l.328-1.66 2.53-8.714h1.85l2.543 8.714.361 1.85h.072l.34-1.85 1.557-6.827-1.476-.278V4.737h4.826v1.609l-1.102.177-3.197 11.919h-1.862l-2.46-8.347-.527-2.305-.07.012-.492 2.293-2.413 8.347h-1.862l-3.197-11.92-1.113-.176V4.737h4.825z"/><path d="M183.949 18.708c-1.766 0-3.171-.634-4.217-1.9-1.039-1.275-1.559-2.926-1.559-4.953v-.557c0-1.95.536-3.572 1.605-4.864 1.078-1.3 2.35-1.95 3.82-1.95 1.701 0 2.99.557 3.864 1.672.882 1.114 1.324 2.6 1.324 4.458v1.558h-8.223l-.034.063c.022 1.317.33 2.403.924 3.255.594.845 1.426 1.267 2.496 1.267.78 0 1.463-.118 2.048-.355a4.747 4.747 0 0 0 1.535-1l.902 1.621c-.453.473-1.054.874-1.804 1.203-.742.321-1.636.482-2.681.482zm-.352-12.261c-.772 0-1.433.355-1.98 1.064-.546.7-.882 1.583-1.006 2.647l.024.063h5.843v-.329c0-.98-.242-1.799-.727-2.457-.484-.659-1.202-.988-2.154-.988z" id="Shape" fill="#999591"/><path d="M200.766 9.043h-1.733l-.375-1.646a3 3 0 0 0-1.064-.684 3.694 3.694 0 0 0-1.442-.266c-.82 0-1.429.194-1.826.583-.4.388-.597.857-.597 1.405 0 .54.175.967.527 1.28.351.312 1.064.59 2.142.836 1.601.371 2.792.878 3.573 1.52.78.633 1.17 1.486 1.17 2.558 0 1.216-.457 2.2-1.37 2.951-.905.752-2.092 1.128-3.56 1.128-.961 0-1.824-.119-2.588-.355a6.787 6.787 0 0 1-2.05-1.051l-.012-3.129h1.733l.435 1.837c.264.261.624.451 1.076.57.46.118.93.177 1.405.177.82 0 1.46-.177 1.92-.532.47-.363.704-.836.704-1.419 0-.548-.195-1-.585-1.355-.383-.354-1.113-.663-2.19-.924-1.539-.364-2.699-.857-3.478-1.482-.781-.625-1.172-1.47-1.172-2.534 0-1.114.437-2.064 1.312-2.85.881-.785 2.026-1.177 3.431-1.177.96 0 1.824.135 2.59.405.764.27 1.4.646 1.908 1.127l.116 3.027z" id="Path" fill="#999591"/><path d="M203.31 11.463c0-2.027.506-3.695 1.52-5.003 1.015-1.318 2.394-1.976 4.135-1.976 1.75 0 3.132.654 4.146 1.963 1.024 1.309 1.535 2.98 1.535 5.016v.278c0 2.044-.508 3.716-1.523 5.016-1.015 1.3-2.393 1.95-4.134 1.95-1.757 0-3.144-.65-4.158-1.95-1.015-1.309-1.522-2.98-1.522-5.016v-.278zm2.305.278c0 1.453.282 2.652.844 3.597.57.946 1.413 1.419 2.53 1.419 1.093 0 1.924-.473 2.495-1.419.57-.945.855-2.144.855-3.597v-.278c0-1.436-.285-2.63-.855-3.585-.571-.954-1.41-1.431-2.519-1.431-1.109 0-1.944.477-2.506 1.431-.562.954-.844 2.15-.844 3.585v.278z" id="Shape" fill="#999591"/><path d="M216.31 16.846l1.908-.355v-9.79l-1.909-.355V4.737h3.981l.154 1.786a4.265 4.265 0 0 1 1.569-1.507c.64-.355 1.382-.532 2.226-.532.842 0 1.564.21 2.166.633.609.422 1.066 1.056 1.37 1.9.399-.777.926-1.393 1.58-1.85.657-.455 1.422-.683 2.297-.683 1.296 0 2.32.481 3.068 1.444.75.954 1.126 2.393 1.126 4.319v6.244l1.908.355v1.596h-6.137v-1.596l1.909-.355v-6.27c0-1.35-.215-2.305-.645-2.862-.43-.566-1.066-.849-1.908-.849-.805 0-1.454.308-1.945.925-.484.608-.766 1.376-.842 2.305v6.751l1.908.355v1.596h-6.125v-1.596l1.909-.355v-6.27c0-1.283-.223-2.22-.669-2.811-.436-.6-1.072-.9-1.908-.9-.703 0-1.281.156-1.733.469-.454.312-.8.751-1.042 1.317v8.195l1.908.355v1.596h-6.125v-1.596z" id="Path" fill="#999591"/><path d="M245.109 18.708c-1.764 0-3.17-.634-4.216-1.9-1.04-1.275-1.558-2.926-1.558-4.953v-.557c0-1.95.534-3.572 1.605-4.864 1.077-1.3 2.35-1.95 3.818-1.95 1.702 0 2.99.557 3.865 1.672.881 1.114 1.323 2.6 1.323 4.458v1.558h-8.221l-.036.063c.024 1.317.333 2.403.926 3.255.592.845 1.425 1.267 2.494 1.267.781 0 1.463-.118 2.05-.355a4.72 4.72 0 0 0 1.533-1l.903 1.621c-.452.473-1.054.874-1.803 1.203-.742.321-1.636.482-2.683.482zm-.351-12.261c-.773 0-1.433.355-1.979 1.064-.547.7-.883 1.583-1.008 2.647l.024.063h5.843v-.329c0-.98-.242-1.799-.725-2.457-.484-.659-1.202-.988-2.155-.988z" id="Shape" fill="#999591"/><path id="Rectangle" fill="#FF9000" d="M0 196.314h392.351v3.706H0zM0 48.087h392.351v3.706H0z"/><path d="M90.875 119.933v26.043c0 2.214-.416 4.323-1.248 6.33-.767 1.936-1.823 3.63-3.166 5.083a14.552 14.552 0 0 1-4.797 3.425c-1.791.899-3.71 1.348-5.757 1.348-2.047 0-3.966-.415-5.757-1.245a15.68 15.68 0 0 1-4.701-3.32 18.147 18.147 0 0 1-3.262-4.98c-.768-1.937-1.184-4.012-1.247-6.226v-19.195c-.192-2.145-1.088-3.701-2.687-4.67.895-.484 1.79-.726 2.687-.726V97.313c.063-2.213.48-4.289 1.247-6.225.831-1.937 1.919-3.597 3.262-4.98a14.852 14.852 0 0 1 4.701-3.425c1.791-.83 3.71-1.245 5.757-1.245 2.047 0 3.966.45 5.757 1.349a14.552 14.552 0 0 1 4.797 3.424c1.343 1.453 2.399 3.182 3.166 5.188.832 1.937 1.248 4.046 1.248 6.33 0 1.175.096 2.04.288 2.593.255.553.511 1.003.767 1.349.256.346.48.657.672.934.256.277.384.726.384 1.349h-4.99c-1.023-.139-1.535-.727-1.535-1.764 0 1.037-.512 1.625-1.535 1.764H79.84c0-.623.096-1.072.288-1.35.256-.276.511-.587.767-.933.256-.346.48-.796.672-1.349.256-.553.384-1.453.384-2.698v-.103c0-.9-.032-1.972-.096-3.217a14.211 14.211 0 0 0-.672-3.735c-.384-1.176-.991-2.18-1.823-3.01-.831-.83-1.983-1.244-3.454-1.244-1.535 0-2.718.45-3.55 1.349-.768.83-1.343 1.833-1.727 3.009a14.214 14.214 0 0 0-.672 3.735 70.164 70.164 0 0 0-.095 3.32V121.8c.895 0 1.79.242 2.686.727-1.6.968-2.495 2.524-2.686 4.669v18.78c0 .9.031 2.006.095 3.32.064 1.246.288 2.49.672 3.736.384 1.176.96 2.179 1.727 3.009.832.83 2.015 1.245 3.55 1.245 1.535 0 2.687-.415 3.454-1.245.832-.83 1.44-1.833 1.823-3.01.384-1.244.608-2.49.672-3.735.064-1.314.096-2.42.096-3.32v-21.27c-.704.069-1.312.38-1.823.933-.448.554-.672 1.21-.672 1.972v.103c-.064 1.038-.32 1.937-.768 2.698-.383.692-.959 1.314-1.726 1.868-.768.484-1.887.726-3.359.726v-13.073h17.27zm-24.754-3.01c0-.414-.032-.83-.096-1.245v-3.527a103.944 103.944 0 0 1-.096-4.358c0-1.384-.032-2.698-.096-3.943a16.444 16.444 0 0 1-.096-1.66c0-.554-.032-1.107-.096-1.66 0-.485-.032-.934-.096-1.35v-1.244c0-.346-.032-.657-.096-.934v-1.245c-.064 0-.096.034-.096.104v.414c0 .208-.032.45-.096.727v.934c0 .345-.032.76-.096 1.245v1.349a14.448 14.448 0 0 0-.096 1.66c0 .484-.032 1.037-.096 1.66a76.99 76.99 0 0 0-.096 3.943c0 1.383-.032 2.836-.096 4.358v2.386c0 .346-.032.726-.096 1.141V127.196c.064.207.096.38.096.518v5.811c.064.692.096 1.383.096 2.075v2.18c.064.622.096 1.21.096 1.763a17.3 17.3 0 0 1 .096 1.764c0 .553.032 1.072.096 1.556v1.453c.064.415.096.795.096 1.141v.934c.064.277.096.519.096.726v.52c0 .068.032.103.096.103v-.623-.726c.064-.277.096-.588.096-.934v-1.141c.064-.415.096-.9.096-1.453.064-.484.096-1.003.096-1.556 0-.553.032-1.141.096-1.764v-1.764a23.69 23.69 0 0 0 .096-2.179v-2.075c.064-.761.096-1.522.096-2.283v-2.282c0-.554.032-.969.096-1.246v-10.79zm20.916 15.046a20.471 20.471 0 0 1-.096-1.868c0-.623-.032-1.21-.096-1.764-.064-1.037-.16-1.902-.288-2.594a.981.981 0 0 0-.096-.415v-.622l-.096.103v.208c0 .069-.032.173-.096.311v.415c-.128.692-.224 1.557-.288 2.594a15.384 15.384 0 0 0-.095 1.764c0 .553-.033 1.176-.097 1.868v1.037c0 .208-.031.415-.095.623v4.773c0 .207.032.38.095.519v2.49c.064.276.097.588.097.933v.934c.063.277.095.554.095.83.064.277.096.554.096.83 0 .208.032.416.096.623v.623c.064.207.096.38.096.518v.415a.842.842 0 0 1 .096.312v.207c0 .07.032.104.096.104v-.311-.312a.982.982 0 0 0 .096-.415v-.518c.064-.208.096-.416.096-.623.064-.207.096-.415.096-.623 0-.276.032-.553.096-.83v-.83c.064-.276.096-.588.096-.934v-.933c.064-.277.096-.588.096-.934v-1.038c0-.276.032-.45.096-.518v-4.877a.982.982 0 0 0-.096-.415v-1.66zM125.73 121.904c1.088 0 1.983.242 2.687.726-.704.485-1.312 1.142-1.823 1.972a7.777 7.777 0 0 0-.864 2.698v15.667c-.064 2.214-.512 4.289-1.343 6.226a16.52 16.52 0 0 1-3.166 4.98 15.677 15.677 0 0 1-4.702 3.32c-1.79.83-3.71 1.246-5.757 1.246-2.046 0-3.965-.416-5.756-1.246a15.677 15.677 0 0 1-4.702-3.32 18.147 18.147 0 0 1-3.262-4.98c-.767-1.937-1.183-4.012-1.247-6.226V127.3c-.192-2.145-1.087-3.701-2.687-4.67.704-.484 1.6-.726 2.687-.726v-20.025c.064-2.145.48-4.186 1.247-6.122.832-1.937 1.92-3.597 3.262-4.98a14.846 14.846 0 0 1 4.702-3.425c1.79-.83 3.71-1.245 5.756-1.245 2.047 0 3.966.415 5.757 1.245a14.846 14.846 0 0 1 4.702 3.424c1.343 1.384 2.398 3.044 3.166 4.98a16.636 16.636 0 0 1 1.343 6.123v20.025zm-24.754-3.735c0-.346-.032-.658-.096-.934V114.226a77.013 77.013 0 0 1-.096-3.736c0-1.175-.032-2.282-.096-3.32a11.081 11.081 0 0 1-.096-1.452c0-.485-.032-.934-.096-1.35 0-.414-.032-.795-.096-1.14v-.934c0-.346-.032-.623-.096-.83v-1.142c-.064 0-.096.035-.096.104v.415c0 .138-.032.346-.096.622v.83c0 .277-.032.589-.096.934v1.142a8.873 8.873 0 0 0-.095 1.349c0 .484-.032.968-.096 1.452a54.102 54.102 0 0 0-.096 3.32c0 1.176-.032 2.422-.096 3.736v1.971c0 .346-.032.692-.096 1.038V126.366c0 .484.032.83.096 1.037v4.877c.064.622.096 1.21.096 1.764v1.764c.064.484.096 1.003.096 1.556.064.553.096 1.072.096 1.557 0 .414.032.83.095 1.245v1.14c.064.347.096.693.096 1.038v.934c.064.208.096.38.096.52v.31c0 .07.032.104.096.104v-.415-.519c.064-.276.096-.588.096-.934v-1.037c.064-.346.096-.726.096-1.141.064-.415.096-.83.096-1.245 0-.485.032-1.004.096-1.557v-1.556c.064-.554.096-1.142.096-1.764v-1.764c.064-.623.096-1.245.096-1.868v-3.009c.064-.207.096-.553.096-1.037v-8.197zm15.831-15.875c0-.9-.032-2.007-.096-3.32a14.207 14.207 0 0 0-.672-3.736c-.383-1.176-.99-2.179-1.822-3.009-.768-.9-1.92-1.349-3.455-1.349-1.535 0-2.718.45-3.55 1.349-.767.83-1.343 1.833-1.727 3.009a14.214 14.214 0 0 0-.671 3.735 70.193 70.193 0 0 0-.096 3.32v19.611c1.087 0 1.983.242 2.686.726-1.599.969-2.494 2.525-2.686 4.67v15.252c0 .9.032 2.006.096 3.32a15.31 15.31 0 0 0 .671 3.736c.384 1.176.96 2.179 1.728 3.009.831.83 2.014 1.245 3.55 1.245 1.535 0 2.686-.415 3.454-1.245.831-.83 1.439-1.833 1.822-3.01.384-1.245.608-2.49.672-3.735.064-1.314.096-2.42.096-3.32V127.3c-.128-2.076-1.023-3.632-2.686-4.67.703-.484 1.599-.726 2.686-.726v-19.61zm5.181 15.875v-.934c0-.346-.032-.692-.096-1.038v-1.971c0-1.314-.032-2.56-.096-3.736a53.96 53.96 0 0 0-.096-3.32 11.081 11.081 0 0 1-.096-1.452c0-.485-.032-.934-.096-1.35 0-.414-.031-.795-.095-1.14v-.934c0-.346-.033-.623-.096-.83v-1.142c-.064 0-.096.035-.096.104v1.037c0 .208-.032.485-.096.83 0 .277-.032.589-.096.934v1.142a8.872 8.872 0 0 0-.096 1.349c0 .484-.032.968-.096 1.452a54.096 54.096 0 0 0-.096 3.32c0 1.176-.032 2.422-.096 3.736v3.943a22.528 22.528 0 0 0-.096 2.075v4.15c0 .623.032 1.28.096 1.972V132.28a17.3 17.3 0 0 1 .096 1.764v1.764c.064.484.096 1.003.096 1.556.064.553.096 1.072.096 1.557 0 .414.032.83.096 1.245v1.14c.064.347.096.693.096 1.038.064.346.096.658.096.934V144.108c0 .07.032.104.096.104v-.415-.519c.063-.276.096-.588.096-.934v-1.037c.064-.346.095-.726.095-1.141.064-.415.096-.83.096-1.245 0-.485.032-1.004.096-1.557v-1.556c.064-.554.096-1.142.096-1.764v-1.764c.064-.623.096-1.245.096-1.868v-1.971-.519a1.83 1.83 0 0 0 .096-.519v-9.234zM161.335 108.52c0 3.112-.703 5.913-2.11 8.403-1.408 2.49-3.295 4.428-5.662 5.811a19.352 19.352 0 0 1 3.167 3.424 18.512 18.512 0 0 1 2.398 4.15 25.17 25.17 0 0 1 1.632 4.67c.383 1.59.575 3.147.575 4.669v6.64c-.064 2.214-.48 4.289-1.247 6.226a16.52 16.52 0 0 1-3.166 4.98 15.68 15.68 0 0 1-4.702 3.32c-1.79.9-3.71 1.35-5.757 1.35h-9.018c-.448 0-.832-.173-1.152-.52-.256-.345-.384-.76-.384-1.244 0 .484-.16.899-.48 1.245-.32.346-.67.518-1.055.518h-5.085c0-.622.096-1.072.288-1.348.256-.277.512-.588.768-.934.255-.277.48-.692.671-1.245.256-.554.384-1.418.384-2.594v-28.95c-.192-2.074-1.087-3.596-2.687-4.564.832-.554 1.727-.83 2.687-.83V87.56c0-1.176-.128-2.04-.384-2.594-.192-.554-.416-.969-.671-1.245a11.046 11.046 0 0 0-.768-.934c-.192-.277-.288-.726-.288-1.349h5.085c.384 0 .736.173 1.056.519.32.276.48.657.48 1.141 0-1.107.511-1.66 1.535-1.66h9.018c2.047 0 3.966.415 5.757 1.245 1.791.83 3.358 1.972 4.702 3.424 1.343 1.384 2.398 3.044 3.166 4.98a17.938 17.938 0 0 1 1.247 6.122v11.31zm-24.754 7.677c0-.484-.032-.934-.096-1.349v-4.046a143.447 143.447 0 0 1-.096-5.084c0-1.591-.032-3.079-.096-4.462a24.96 24.96 0 0 1-.096-2.075c0-.623-.032-1.21-.096-1.764 0-.554-.032-1.072-.096-1.556v-1.35a6.29 6.29 0 0 0-.096-1.14V91.917c-.064.069-.095.138-.095.207v.415c0 .208-.033.484-.097.83v1.142c0 .345-.031.795-.095 1.349v1.556a15.382 15.382 0 0 0-.096 1.764c0 .622-.032 1.314-.096 2.075a96.934 96.934 0 0 0-.096 4.462c0 1.59-.032 3.285-.096 5.084v4.046c0 .415-.032.865-.096 1.35v11.828c.064.207.096.45.096.726v6.641c.064.83.096 1.625.096 2.386v2.283c.064.76.096 1.522.096 2.282.064.346.096.692.096 1.038v1.868c.064.276.096.553.096.83v1.66c.064.484.095.934.095 1.349v1.141c.064.277.097.519.097.726v.52c0 .068.031.138.095.207v-.727-.726c.064-.346.096-.726.096-1.141v-1.35c.064-.552.096-1.106.096-1.66.064-.276.096-.553.096-.83v-.933-.934c.064-.346.096-.692.096-1.038v-2.282c.064-.761.096-1.522.096-2.283v-2.386c.064-.9.096-1.799.096-2.698v-2.594c0-.623.032-1.072.096-1.349v-12.555zm19.765 28.015c-.064.208-.096.554-.096 1.038v1.867c0 .346-.032.658-.096.934v.83c0 .277-.032.52-.096.727V150.542c-.064.069-.096.172-.096.31v.52c-.064.069-.096.138-.096.207v.208c0 .069-.032.138-.096.207v.104c0 .07-.032.138-.096.207h.096l.096-.207.096-.208c.064-.069.096-.138.096-.207.064-.07.096-.139.096-.208.064-.069.096-.138.096-.207.064-.07.096-.173.096-.312a.734.734 0 0 0 .192-.518c.128-.277.256-.761.384-1.453.128-.415.192-.692.192-.83a.982.982 0 0 0 .095-.415c0-.208.032-.38.096-.519v-.415a1.83 1.83 0 0 0 .096-.519c.064-.207.096-.519.096-.933.064-.346.096-.692.096-1.038 0-.346.032-.692.096-1.038v-4.357c0-.346-.032-.692-.096-1.038 0-.346-.032-.692-.096-1.038 0-.415-.032-.726-.096-.934a.981.981 0 0 0-.096-.415v-.518a.982.982 0 0 1-.096-.415c0-.208-.031-.38-.095-.52a.982.982 0 0 0-.096-.414v-.415c-.128-.415-.192-.657-.192-.727a5.952 5.952 0 0 0-.288-.726.734.734 0 0 0-.192-.519.735.735 0 0 0-.192-.518l-.288-.623c-.064-.07-.096-.138-.096-.207h-.096l.096.207v.207c.064 0 .096.035.096.104 0 .139.032.277.096.415v.519c.064.138.096.311.096.519 0 .346.032.588.096.726v.726c.064.277.096.554.096.83v2.387a.982.982 0 0 1 .096.415v7.263zm-3.934-4.565c0-.9-.032-2.18-.096-3.84a26.622 26.622 0 0 0-.671-4.98c-.384-1.66-.992-3.078-1.823-4.254-.768-1.245-1.92-1.867-3.454-1.867h-3.454c-.704 0-1.312.276-1.823.83a2.806 2.806 0 0 0-.768 1.971v26.977c0 .761.256 1.418.768 1.972.511.484 1.119.76 1.823.83h3.454c1.535 0 2.686-.415 3.454-1.245a8.342 8.342 0 0 0 1.823-3.113c.383-1.176.607-2.421.671-3.735.064-1.315.096-2.421.096-3.32v-6.226zm0-42.023c0-.899-.032-1.971-.096-3.216a14.214 14.214 0 0 0-.671-3.735c-.384-1.176-.992-2.18-1.823-3.01-.768-.899-1.92-1.348-3.454-1.348h-3.454c-.704 0-1.312.276-1.823.83a2.806 2.806 0 0 0-.768 1.971v27.911c0 .761.256 1.418.768 1.972.511.553 1.119.83 1.823.83h3.454c1.535 0 2.686-.415 3.454-1.245.831-.83 1.439-1.833 1.823-3.01a15.31 15.31 0 0 0 .671-3.735c.064-1.314.096-2.42.096-3.32V97.624zm4.318 13.697c.128-.415.192-.692.192-.83.128-.277.192-.554.192-.83a.981.981 0 0 0 .095-.416c0-.207.032-.38.096-.518v-.415c.064-.208.096-.416.096-.623.064-.207.096-.553.096-1.038.064-.345.096-.691.096-1.037s.032-.692.096-1.038v-2.282-2.18c0-.76-.032-1.487-.096-2.178a1.83 1.83 0 0 1-.096-.52c0-.207-.032-.38-.096-.518 0-.484-.032-.83-.096-1.037a21.69 21.69 0 0 0-.191-.934c0-.277-.033-.554-.096-.83-.128-.415-.192-.692-.192-.83-.128-.277-.192-.485-.192-.623l-.288-.622a.735.735 0 0 0-.192-.52 5.952 5.952 0 0 0-.288-.726l-.192-.207v.207c.064 0 .096.035.096.104.064.07.096.173.096.311 0 .139.032.277.096.415v.52c.064.138.096.345.096.622v.415c.064.069.096.173.096.311v.726c.064.277.096.554.096.83v2.491a.982.982 0 0 1 .096.415v7.678c-.064.207-.096.553-.096 1.037v1.972c0 .346-.032.657-.096.934v.83c0 .277-.032.553-.096.83v.622c0 .346-.032.554-.096.623v.622c-.064 0-.096.07-.096.208v.208c0 .069-.032.138-.096.207v.104c0 .069-.032.138-.096.207l.192-.207v-.104c.064-.07.096-.138.096-.207.064 0 .096-.07.096-.208.064 0 .096-.07.096-.208.064 0 .096-.069.096-.207.064-.07.096-.173.096-.311a.734.734 0 0 0 .192-.519c.128-.415.192-.657.192-.726zM197.626 152.513c.256 1.176.544 2.04.863 2.594.32.553.64 1.003.96 1.349l.863.933c.256.277.449.727.577 1.35h-5.086c-.447 0-.863-.174-1.247-.52a2.215 2.215 0 0 1-.577-1.244c.065.484-.03.899-.286 1.245-.256.345-.577.519-.96.519h-5.085c-.128-.623-.095-1.073.096-1.35l.576-.83c.191-.345.351-.795.48-1.348.127-.623.095-1.557-.096-2.802v-.104l-2.112-11.724c-.128-.692-.479-1.28-1.056-1.764-.574-.554-1.214-.83-1.918-.83h-6.62c-.704 0-1.344.276-1.919.83-.576.484-.928 1.072-1.056 1.764l-2.014 11.724v.104c-.193 1.245-.256 2.179-.193 2.802.128.553.289 1.003.48 1.348.256.277.448.554.576.83.191.277.256.727.191 1.35h-5.084c-.448 0-.8-.174-1.056-.52-.256-.345-.352-.76-.288-1.244-.064.484-.255.899-.575 1.245-.32.345-.704.519-1.152.519h-5.085c.064-.623.224-1.073.48-1.35l.863-.933c.32-.346.64-.796.96-1.35.32-.553.608-1.417.863-2.593l4.318-25.213c.128-.969.032-1.868-.288-2.698a4.135 4.135 0 0 0-1.535-1.972c1.023-.484 1.951-.726 2.782-.726l5.181-29.571c.193-1.176.225-2.04.097-2.594-.128-.623-.288-1.073-.48-1.35a11.062 11.062 0 0 0-.576-.933c-.192-.277-.223-.726-.095-1.349h6.427c.96.139 1.44.726 1.44 1.764 0-.484.127-.865.383-1.141.32-.346.672-.554 1.056-.623h6.524c.128.623.097 1.072-.096 1.35-.128.276-.288.587-.479.933-.193.276-.353.726-.48 1.349-.129.553-.096 1.418.096 2.594l5.085 29.571c.511 0 .99.07 1.44.207.446.139.895.312 1.342.52-1.408.968-2.015 2.524-1.822 4.669l4.317 25.213zm-23.028-37.146c.128-.415.193-.795.193-1.141.063-.415.128-.796.191-1.142.32-1.59.577-3.078.768-4.461.192-1.453.383-2.767.576-3.943a7.348 7.348 0 0 0 .191-1.66l.193-1.66c.063-.485.128-.934.19-1.35.066-.414.129-.795.194-1.14.063-.346.095-.658.095-.934 0-.346.033-.623.096-.83v-.415l-.096.415c-.063.207-.128.45-.19.726-.066.277-.129.588-.194.934a5.86 5.86 0 0 0-.288 1.245c-.063.415-.159.83-.286 1.245l-.384 1.66c-.065.553-.16 1.107-.288 1.66-.321 1.176-.64 2.456-.96 3.84a667.946 667.946 0 0 1-.864 4.357c0 .415-.032.796-.095 1.142-.065.345-.16.726-.289 1.14l-.19 1.246a38.57 38.57 0 0 0-.193 1.141c-.191.761-.384 1.557-.575 2.387l-.384 2.49a39.579 39.579 0 0 1-.48 2.387c-.129.83-.257 1.625-.385 2.386a2.132 2.132 0 0 0-.095.622c0 .139-.033.312-.096.52-.128.553-.192.968-.192 1.244-.191.692-.32 1.453-.384 2.283l-.383 2.283a32.78 32.78 0 0 0-.288 2.075 65.536 65.536 0 0 1-.576 3.943 15.027 15.027 0 0 0-.288 1.66l-.192 1.66c-.128.484-.224.968-.287 1.453 0 .415-.033.795-.097 1.141a5.182 5.182 0 0 0-.095.934c0 .277-.032.519-.096.726 0 .139-.032.242-.096.312v.207c.064 0 .096-.035.096-.104 0-.138.032-.276.096-.415.064-.138.095-.346.095-.622.064-.346.16-.692.288-1.038.128-.346.224-.726.288-1.141.128-.415.256-.865.384-1.35.128-.483.224-1.002.288-1.556.128-.553.224-1.106.288-1.66.127-.553.256-1.141.383-1.764.192-.691.352-1.383.48-2.075.128-.691.256-1.418.384-2.179.193-.76.384-1.521.576-2.282l.191-1.038c.065-.415.128-.795.193-1.141l.287-1.245c.065-.208.097-.415.097-.623 0-.208.03-.415.095-.622.128-.762.289-1.522.48-2.283.192-.83.351-1.66.479-2.49.128-.761.256-1.557.384-2.387.128-.83.256-1.625.384-2.386l.192-1.245c.063-.416.128-.796.191-1.142zm8.157 17.743c.702-.07 1.246-.346 1.63-.83.449-.554.607-1.21.48-1.972l-.575-3.008a7.548 7.548 0 0 0-1.344-2.698 6.584 6.584 0 0 0-2.11-1.972 4.585 4.585 0 0 1 2.493-.726l-3.07-17.743-3.07 17.743c.832 0 1.696.242 2.591.726a7.22 7.22 0 0 0-2.303 1.972 7.09 7.09 0 0 0-1.15 2.698l-.48 3.008c-.128.761 0 1.418.384 1.972.383.484.895.76 1.535.83h4.989zm9.69 14.526v.312c.064 0 .096.034.096.103v-.415a2.443 2.443 0 0 1-.097-.726c0-.277-.03-.588-.095-.934a39.098 39.098 0 0 1-.191-1.141c0-.485-.065-.969-.193-1.453l-.191-1.66a15.232 15.232 0 0 0-.288-1.66c-.193-1.038-.384-2.352-.577-3.943a58.922 58.922 0 0 1-.384-2.075 27.446 27.446 0 0 0-.286-2.283 10.046 10.046 0 0 1-.288-1.141c0-.346-.065-.726-.193-1.142 0-.276-.063-.691-.191-1.245 0-.207-.033-.38-.096-.519v-.622a39.603 39.603 0 0 0-.48-2.386c-.129-.83-.256-1.626-.384-2.387-.128-.83-.287-1.66-.48-2.49a26.162 26.162 0 0 0-.479-2.387 38.573 38.573 0 0 0-.193-1.14c-.063-.416-.128-.831-.19-1.246a10.036 10.036 0 0 1-.289-1.141 38.677 38.677 0 0 1-.193-1.142c-.319-1.59-.64-3.043-.958-4.358-.256-1.383-.48-2.663-.672-3.839l-.384-1.66-.384-1.66-.384-1.245c-.063-.484-.16-.9-.288-1.245a21.775 21.775 0 0 0-.19-.934 10.555 10.555 0 0 0-.194-.726l-.095-.415v.415c.065.345.16.933.288 1.763 0 .346.033.727.096 1.142.064.415.128.864.192 1.349l.191 1.66c.065.553.16 1.107.289 1.66.19 1.176.383 2.49.574 3.943.193 1.383.417 2.87.672 4.461.065.346.096.727.096 1.142.065.346.16.726.288 1.141.065.346.128.726.193 1.142l.191 1.245c.128.76.256 1.556.384 2.386.193.83.351 1.626.48 2.387.127.83.287 1.66.48 2.49.191.76.351 1.521.48 2.283.064.207.095.414.095.622 0 .208.032.415.097.623l.287 1.245c.064.346.128.726.192 1.141l.191 1.038c.193.76.353 1.521.481 2.282.128.761.256 1.488.384 2.18l.384 2.074c.19.623.351 1.211.48 1.764l.383 1.66c.128.554.256 1.073.384 1.557.19.968.383 1.798.575 2.49.127.346.192.692.192 1.038.063.276.128.484.191.622zM237.882 163.096c.705.139 1.184.38 1.44.727.319.345.544.691.672 1.037.128.415.19.865.19 1.349-2.046 0-3.965-.277-5.756-.83a12.917 12.917 0 0 1-4.798-2.698c-1.342-1.245-2.43-2.87-3.26-4.876-.768-2.006-1.152-4.462-1.152-7.367v-14.215c0-.9-.033-2.006-.097-3.32a14.179 14.179 0 0 0-.67-3.736c-.384-1.176-.993-2.179-1.824-3.009-.767-.9-1.919-1.349-3.454-1.349h-3.935c-.575.139-1.086.484-1.535 1.038-.384.484-.575 1.072-.575 1.764v24.798c0 1.245.096 2.179.289 2.802.256.553.511 1.003.767 1.348.256.277.48.554.67.83.256.277.384.727.384 1.35h-5.084c-.384 0-.735-.174-1.056-.52-.319-.345-.48-.726-.48-1.14 0 .414-.16.795-.479 1.14-.255.346-.608.52-1.055.52h-4.99c0-.623.096-1.073.287-1.35l.77-.83c.255-.345.479-.795.67-1.348.256-.554.384-1.418.384-2.594V127.3c-.191-2.145-1.087-3.701-2.687-4.67.705-.484 1.6-.726 2.687-.726V92.229c0-1.176-.128-2.04-.384-2.594-.191-.553-.415-.969-.67-1.245a11.11 11.11 0 0 0-.77-.934c-.19-.277-.286-.726-.286-1.349h5.084c.384 0 .735.173 1.056.519.319.277.48.657.48 1.141 0-1.107.51-1.66 1.534-1.66h9.02c2.046 0 3.965.415 5.756 1.245 1.791.83 3.359 1.972 4.703 3.424 1.342 1.384 2.398 3.044 3.165 4.98a17.918 17.918 0 0 1 1.247 6.123v6.744c0 2.905-.64 5.568-1.919 7.99-1.279 2.42-3.005 4.357-5.181 5.81 2.176 1.383 3.902 3.32 5.181 5.81 1.28 2.421 1.919 5.084 1.919 7.99V154.484a25.86 25.86 0 0 0 .48 4.047c.255 1.176.639 2.179 1.15 3.009.512.83 1.217 1.349 2.112 1.556zm-8.73-56.237a1.223 1.223 0 0 0-.096.519v2.386a3.629 3.629 0 0 0-.098.83v.623c0 .138-.03.242-.095.311V112.462a1.25 1.25 0 0 0-.096.519.994.994 0 0 1-.095.415c0 .138-.033.242-.097.311v.208l-.096.207.193-.104v-.103l.095-.104c.063-.07.096-.104.096-.104 0-.07.032-.138.095-.207l.193-.416c.063-.207.128-.38.193-.518l.095-.208c0-.069.031-.173.096-.311a.824.824 0 0 0 .095-.311c0-.139.033-.277.098-.415a.856.856 0 0 0 .095-.312c0-.069.033-.173.096-.311v-.311a.969.969 0 0 0 .095-.415c.065-.277.097-.554.097-.83l.191-.83c.065-.208.096-.52.096-.934v-.415a.971.971 0 0 0 .097-.415v-3.632c0-.415-.032-.726-.097-.934v-.415c0-.138-.03-.207-.096-.207v-.311c0-.346-.063-.865-.19-1.557a.97.97 0 0 1-.098-.415.969.969 0 0 0-.095-.415c0-.07-.033-.104-.096-.104v-.207c0-.07-.032-.104-.095-.104v-.208a.834.834 0 0 1-.098-.31.825.825 0 0 0-.095-.312.824.824 0 0 1-.096-.311.856.856 0 0 0-.095-.312c-.065-.069-.097-.138-.097-.207 0-.07-.033-.139-.096-.208l-.193-.415-.095-.103c0-.07-.033-.139-.096-.208a.305.305 0 0 1-.095-.208c-.065-.069-.097-.138-.097-.207h-.096l.096.207v.208c.064.07.097.208.097.415v.207c.063 0 .095.07.095.208 0 .208.033.38.096.519v.829c.065.07.095.174.095.312 0 .623.033 1.107.098 1.453v1.66c.063.346.095.9.095 1.66v3.943zm-19.766 10.687c0-.346-.032-.726-.095-1.141v-3.528a102.589 102.589 0 0 1-.097-4.358c0-1.383-.031-2.698-.096-3.943a14.641 14.641 0 0 1-.095-1.66c0-.553-.033-1.072-.096-1.556 0-.554-.032-1.038-.097-1.453v-1.141c0-.346-.03-.657-.096-.934v-1.246c-.063 0-.095.035-.095.105v.415c0 .207-.033.45-.096.726v.934c0 .346-.032.726-.097 1.141v1.453a12.06 12.06 0 0 0-.096 1.556c0 .553-.032 1.107-.095 1.66a76.051 76.051 0 0 0-.096 3.943c0 1.383-.032 2.836-.097 4.358v2.283c0 .415-.03.83-.095 1.245v10.791c0 .553.032.968.095 1.245v5.707c.065.691.097 1.383.097 2.075v2.075c.064.623.096 1.245.096 1.868.063.622.095 1.21.095 1.763 0 .485.033 1.003.096 1.557v1.349c.065.415.097.795.097 1.141v1.038c.063.276.096.484.096.622v.519c0 .07.032.104.095.104v-.623-.622a5.62 5.62 0 0 0 .096-1.038v-1.141a8.76 8.76 0 0 0 .097-1.35c.063-.553.096-1.071.096-1.556 0-.553.032-1.14.095-1.763v-1.868c.065-.623.096-1.314.096-2.075v-2.075c.064-.761.097-1.522.097-2.283v-2.283c0-.553.03-.934.095-1.141v-10.895zm15.832-15.252c0-.9-.033-2.007-.097-3.32a14.179 14.179 0 0 0-.67-3.736c-.384-1.176-.993-2.179-1.824-3.009-.767-.9-1.919-1.349-3.454-1.349h-3.454c-.704.07-1.311.38-1.823.934a2.806 2.806 0 0 0-.768 1.971v23.346c0 .761.256 1.418.768 1.972.512.553 1.119.83 1.823.83h3.454c1.535 0 2.687-.416 3.454-1.246.83-.83 1.44-1.833 1.823-3.009.384-1.245.608-2.49.67-3.735.065-1.314.098-2.42.098-3.32v-6.33zm6.428 56.86l-.097-.104-.095-.104-.191-.415c0-.138-.065-.277-.193-.415l-.191-.623a21.606 21.606 0 0 1-.193-.934 10.85 10.85 0 0 1-.19-1.971 5.621 5.621 0 0 1-.098-1.038v-6.848-1.452c0-.484.032-1.003.097-1.557v-1.452c0-.484-.032-.969-.097-1.453v-1.453c0-.691-.03-1.175-.096-1.452 0-.484-.032-.934-.095-1.349 0-.484-.033-.934-.096-1.349a49.853 49.853 0 0 0-.383-2.49 21.605 21.605 0 0 0-.193-.934 6.362 6.362 0 0 0-.288-1.037 17.821 17.821 0 0 1-.289-.83 2.665 2.665 0 0 0-.286-.623 5.051 5.051 0 0 1-.288-.519l-.193-.415c-.063 0-.128-.035-.191-.104-.065 0-.096-.034-.096-.103l.096.103c0 .07.032.139.095.208v.207c.065 0 .096.07.096.208.065.069.097.138.097.207 0 .07.03.173.096.312.063.276.16.76.288 1.452.063.346.095.692.095 1.038l.191 1.037v1.142c.065.346.098.76.098 1.245V148.88c.063.208.095.45.095.727v1.452c.063.415.128.83.193 1.245.063.415.095.83.095 1.245.063.415.128.796.191 1.142.128.415.226.795.289 1.141.064.277.16.588.288.934.128.346.223.622.288.83.063.208.159.415.287.623l.192.207c.064.07.096.138.096.208l.095.104.384.414h.097z" id="Shape" fill="#F4EDE8"/><path d="M266.651 108.623c0 2.905-.64 5.568-1.919 7.99-1.279 2.42-3.007 4.357-5.182 5.81 2.175 1.383 3.903 3.32 5.182 5.81 1.28 2.421 1.919 5.084 1.919 7.99v6.744c-.063 2.214-.48 4.289-1.247 6.226a16.506 16.506 0 0 1-3.167 4.98 15.665 15.665 0 0 1-4.7 3.32c-1.792.83-3.71 1.246-5.757 1.246h-9.115c-.384 0-.735-.174-1.056-.52-.319-.345-.48-.726-.48-1.14 0 .414-.16.795-.479 1.14-.255.346-.608.52-1.055.52h-4.99c0-.623.096-1.073.287-1.35l.768-.83c.256-.345.48-.795.672-1.348.256-.554.384-1.418.384-2.594V127.3c-.191-2.145-1.087-3.701-2.687-4.67.705-.484 1.6-.726 2.687-.726V92.229c0-1.176-.128-2.04-.384-2.594-.191-.553-.416-.969-.672-1.245a11.105 11.105 0 0 0-.768-.934c-.19-.277-.286-.726-.286-1.349h5.084c.384 0 .735.173 1.056.519.319.277.48.657.48 1.141 0-1.107.51-1.66 1.534-1.66h9.02c2.046 0 3.965.415 5.756 1.245 1.791.83 3.359 1.972 4.7 3.424 1.345 1.384 2.4 3.044 3.168 4.98a17.918 17.918 0 0 1 1.247 6.123v6.744zm-24.754 8.923c0-.346-.032-.726-.095-1.141v-3.528a102.589 102.589 0 0 1-.097-4.358c0-1.383-.031-2.698-.096-3.943a14.641 14.641 0 0 1-.096-1.66c0-.553-.032-1.072-.095-1.556 0-.554-.032-1.038-.097-1.453v-1.141c0-.346-.031-.657-.096-.934v-1.246c-.063 0-.095.035-.095.105v.415c0 .207-.033.45-.096.726v.934c0 .346-.032.726-.097 1.141v1.453a12.06 12.06 0 0 0-.096 1.556c0 .553-.032 1.107-.095 1.66a76.053 76.053 0 0 0-.096 3.943c0 1.383-.032 2.836-.097 4.358v2.283c0 .415-.03.83-.095 1.245v10.791c0 .553.032.968.095 1.245v5.707c.065.691.097 1.383.097 2.075v2.075c.064.623.096 1.245.096 1.868.063.622.095 1.21.095 1.763 0 .485.033 1.003.096 1.557v1.349c.065.415.097.795.097 1.141v1.038c.063.276.096.484.096.622v.519c0 .07.032.104.095.104v-.623-.622a5.62 5.62 0 0 0 .096-1.038v-1.141a8.76 8.76 0 0 0 .097-1.35c.063-.553.095-1.071.095-1.556 0-.553.033-1.14.096-1.763v-1.868c.065-.623.096-1.314.096-2.075v-2.075c.064-.761.097-1.522.097-2.283v-2.283c0-.553.03-.934.095-1.141v-10.895zm19.765 24.072a1.223 1.223 0 0 0-.095.519v2.386a3.629 3.629 0 0 0-.098.83v.623c0 .138-.03.242-.095.311V147.221a1.25 1.25 0 0 0-.096.519.994.994 0 0 1-.095.415c0 .138-.033.242-.097.311v.208l-.096.207.193-.103v-.104l.095-.104c.063-.07.096-.104.096-.104 0-.069.032-.138.095-.207l.193-.415a4.23 4.23 0 0 1 .191-.519l.097-.208c0-.069.031-.173.096-.31a.857.857 0 0 0 .095-.312c0-.07.033-.173.096-.311a.835.835 0 0 0 .097-.312.97.97 0 0 1 .096-.415v-.31a.994.994 0 0 0 .095-.416c.065-.277.096-.553.096-.83l.192-.83c.063-.208.096-.519.096-.934v-.415a.969.969 0 0 0 .095-.415v-3.632c0-.415-.03-.726-.095-.934v-.414c0-.139-.033-.208-.096-.208v-.208c0-.345-.032-.622-.095-.83 0-.276-.033-.553-.097-.83a.994.994 0 0 1-.096-.415.994.994 0 0 0-.095-.415c0-.069-.033-.104-.096-.104v-.207c0-.07-.032-.104-.097-.104v-.207a.856.856 0 0 1-.096-.312.858.858 0 0 0-.095-.311.824.824 0 0 1-.096-.311.834.834 0 0 0-.097-.311c-.063-.07-.095-.139-.095-.208 0-.07-.033-.138-.096-.207a96.663 96.663 0 0 0-.193-.415l-.095-.104c0-.07-.033-.139-.096-.208a.305.305 0 0 1-.095-.207l-.193-.208.096.208v.207c.064.07.097.208.097.415v.208c.063 0 .095.069.095.207 0 .208.033.38.096.52v.829c.065.07.095.173.095.311 0 .623.033 1.107.098 1.453v1.66c.063.346.095.9.095 1.66v3.943zm-3.933-5.395c0-.9-.033-2.006-.097-3.32a14.11 14.11 0 0 0-.672-3.736c-.384-1.176-.991-2.179-1.822-3.009-.768-.9-1.919-1.349-3.454-1.349h-3.455c-.703.07-1.31.38-1.822.934a2.806 2.806 0 0 0-.768 1.971v23.346c0 .761.256 1.418.768 1.972.512.553 1.119.83 1.822.83h3.455c1.535 0 2.686-.415 3.454-1.245.83-.83 1.438-1.833 1.822-3.01.385-1.245.609-2.49.672-3.735.064-1.314.097-2.42.097-3.32v-6.33zm0-33.93c0-.899-.033-2.006-.097-3.32a14.11 14.11 0 0 0-.672-3.735c-.384-1.176-.991-2.179-1.822-3.009-.768-.9-1.919-1.349-3.454-1.349h-3.455c-.703.07-1.31.38-1.822.934a2.806 2.806 0 0 0-.768 1.971v23.346c0 .761.256 1.418.768 1.972.512.553 1.119.83 1.822.83h3.455c1.535 0 2.686-.416 3.454-1.246.83-.83 1.438-1.833 1.822-3.009.385-1.245.609-2.49.672-3.735.064-1.314.097-2.42.097-3.32v-6.33zm4.124 10.273l.097-.208c0-.069.031-.173.096-.311a.857.857 0 0 0 .095-.311c0-.139.033-.277.096-.415a.834.834 0 0 0 .097-.312c0-.069.03-.173.096-.311v-.311a.994.994 0 0 0 .095-.415c.065-.277.096-.554.096-.83l.192-.83c.063-.208.096-.52.096-.934v-.415a.969.969 0 0 0 .095-.415v-3.632c0-.415-.03-.726-.095-.934v-.415c0-.138-.033-.207-.096-.207v-.311c0-.346-.064-.865-.192-1.557a.994.994 0 0 1-.096-.415.994.994 0 0 0-.095-.415c0-.07-.033-.104-.096-.104v-.207c0-.07-.032-.104-.097-.104v-.208a.856.856 0 0 1-.096-.31.858.858 0 0 0-.095-.312.824.824 0 0 1-.096-.311.834.834 0 0 0-.097-.312c-.063-.069-.095-.138-.095-.207 0-.07-.033-.139-.096-.208l-.193-.415-.095-.103c0-.07-.033-.139-.096-.208a.305.305 0 0 1-.095-.208c-.065-.069-.097-.138-.097-.207h-.096l.096.207v.208c.064.07.097.208.097.415v.207c.063 0 .095.07.095.208 0 .208.033.38.096.519v.829c.065.07.095.174.095.312 0 .623.033 1.107.098 1.453v1.66c.063.346.095.9.095 1.66v3.943a1.223 1.223 0 0 0-.095.519v2.386a3.629 3.629 0 0 0-.098.83v.623c0 .138-.03.242-.095.311V112.462a1.25 1.25 0 0 0-.096.519.994.994 0 0 1-.095.415c0 .138-.033.242-.097.311v.208l-.096.207.193-.104v-.103l.095-.104c.063-.07.096-.104.096-.104 0-.07.032-.138.095-.207l.193-.416a4.23 4.23 0 0 1 .191-.518zM299.353 152.41c0 1.244.097 2.178.288 2.8.256.554.512 1.004.768 1.35.256.276.48.553.672.83.256.276.384.726.384 1.349h-26.098c-.384 0-.735-.174-1.056-.52-.319-.345-.48-.726-.48-1.14 0 .414-.16.795-.479 1.14-.255.346-.607.52-1.055.52h-4.99c0-.623.096-1.073.289-1.35l.767-.83c.256-.345.48-.795.672-1.348.256-.554.384-1.418.384-2.594V127.3c-.192-2.145-1.088-3.701-2.688-4.67.705-.484 1.6-.726 2.688-.726V92.229c0-1.176-.128-2.04-.384-2.594-.192-.553-.416-.969-.672-1.245a11.105 11.105 0 0 0-.767-.934c-.193-.277-.288-.726-.288-1.349h5.084c.384 0 .737.173 1.056.519.32.277.48.657.48 1.141 0-1.107.51-1.66 1.534-1.66h26.003c0 .623-.128 1.072-.384 1.35-.193.276-.416.587-.672.933-.256.276-.512.726-.768 1.349-.19.553-.288 1.452-.288 2.697v13.8c-2.238 0-3.966-.45-5.18-1.348-1.151-.969-2.016-2.041-2.59-3.217-.705-1.314-1.089-2.87-1.152-4.67v-3.216c0-.76-.256-1.418-.768-1.971-.511-.554-1.119-.865-1.823-.934h-6.908c-.704.07-1.311.38-1.823.934a2.806 2.806 0 0 0-.768 1.971v23.346c0 .761.256 1.418.768 1.972.512.553 1.119.83 1.823.83h.672c.703 0 1.28-.277 1.726-.83.512-.554.768-1.211.768-1.972v-.104c.065-1.037.32-1.936.767-2.697.384-.692.96-1.315 1.728-1.868.768-.553 1.887-.83 3.359-.83v21.478c-1.472 0-2.591-.277-3.359-.83-.767-.554-1.344-1.176-1.728-1.868-.446-.76-.702-1.66-.767-2.698 0-.76-.256-1.418-.768-1.971a2.446 2.446 0 0 0-1.726-.934h-.672c-.704.07-1.311.38-1.823.934a2.806 2.806 0 0 0-.768 1.971v23.346c0 .761.256 1.418.768 1.972.512.553 1.119.83 1.823.83h6.908c.704 0 1.312-.277 1.823-.83.512-.554.768-1.21.768-1.972v-3.32c.063-1.73.447-3.251 1.151-4.565.575-1.176 1.44-2.248 2.591-3.217 1.214-.968 2.942-1.453 5.18-1.453v13.904zm-24.754-34.864c0-.346-.032-.726-.095-1.141v-3.528a102.496 102.496 0 0 1-.096-4.358c0-1.383-.032-2.698-.097-3.943a14.641 14.641 0 0 1-.096-1.66c0-.553-.032-1.072-.095-1.556 0-.554-.032-1.038-.096-1.453v-1.141c0-.346-.032-.657-.097-.934v-1.246c-.063 0-.095.035-.095.105v.415c0 .207-.033.45-.096.726v.934c0 .346-.032.726-.095 1.141v1.453a11.752 11.752 0 0 0-.098 1.556c0 .553-.03 1.107-.095 1.66a78.003 78.003 0 0 0-.096 3.943c0 1.383-.032 2.836-.095 4.358v2.283c0 .415-.032.83-.097 1.245v10.791c0 .553.032.968.097 1.245v5.707c.063.691.095 1.383.095 2.075v2.075c.064.623.096 1.245.096 1.868.065.622.095 1.21.095 1.763 0 .485.033 1.003.098 1.557v1.349c.063.415.095.795.095 1.141v1.038c.063.276.096.484.096.622v.519c0 .07.032.104.095.104v-.623-.622c.065-.346.097-.692.097-1.038v-1.141c.064-.415.096-.865.096-1.35.063-.553.095-1.071.095-1.556 0-.553.033-1.14.096-1.763v-1.868c.065-.623.097-1.314.097-2.075v-2.075a27.61 27.61 0 0 0 .096-2.283v-2.283c0-.553.032-.934.095-1.141v-10.895zM337.951 163.096c.703.139 1.184.38 1.44.727.319.345.542.691.67 1.037.128.415.193.865.193 1.349-2.047 0-3.966-.277-5.757-.83a12.917 12.917 0 0 1-4.797-2.698c-1.343-1.245-2.431-2.87-3.263-4.876-.768-2.006-1.152-4.462-1.152-7.367v-14.215c0-.9-.03-2.006-.095-3.32a14.18 14.18 0 0 0-.672-3.736c-.384-1.176-.991-2.179-1.822-3.009-.767-.9-1.919-1.349-3.454-1.349h-3.935c-.574.139-1.086.484-1.535 1.038-.383.484-.574 1.072-.574 1.764v24.798c0 1.245.095 2.179.286 2.802.256.553.512 1.003.768 1.348.256.277.48.554.672.83.256.277.383.727.383 1.35h-5.084c-.384 0-.737-.174-1.056-.52-.32-.345-.48-.726-.48-1.14 0 .414-.16.795-.48 1.14-.256.346-.607.52-1.054.52h-4.99c0-.623.096-1.073.287-1.35l.768-.83c.256-.345.481-.795.672-1.348.256-.554.384-1.418.384-2.594V127.3c-.191-2.145-1.087-3.701-2.687-4.67.705-.484 1.6-.726 2.687-.726V92.229c0-1.176-.128-2.04-.384-2.594-.191-.553-.416-.969-.672-1.245a11.105 11.105 0 0 0-.768-.934c-.19-.277-.286-.726-.286-1.349h5.084c.384 0 .735.173 1.056.519.32.277.48.657.48 1.141 0-1.107.511-1.66 1.534-1.66h9.02c2.047 0 3.965.415 5.756 1.245 1.791.83 3.359 1.972 4.701 3.424 1.344 1.384 2.4 3.044 3.167 4.98a17.958 17.958 0 0 1 1.247 6.123v6.744c0 2.905-.64 5.568-1.919 7.99-1.279 2.42-3.007 4.357-5.181 5.81 2.174 1.383 3.902 3.32 5.181 5.81 1.28 2.421 1.92 5.084 1.92 7.99V154.484c.062 1.453.223 2.802.479 4.047.255 1.176.64 2.179 1.15 3.009.512.83 1.217 1.349 2.112 1.556zm-8.73-56.237a1.223 1.223 0 0 0-.096.519v2.386a3.629 3.629 0 0 0-.097.83v.623c0 .138-.031.242-.096.311V112.462a1.25 1.25 0 0 0-.096.519.994.994 0 0 1-.095.415c0 .138-.032.242-.097.311v.208l-.096.207.193-.104v-.103l.095-.104.096-.104c0-.07.032-.138.096-.207l.192-.416a4.23 4.23 0 0 1 .191-.518l.098-.208c0-.069.03-.173.095-.311a.857.857 0 0 0 .096-.311c0-.139.032-.277.095-.415a.834.834 0 0 0 .097-.312c0-.069.031-.173.096-.311v-.311a.994.994 0 0 0 .095-.415c.065-.277.096-.554.096-.83l.193-.83c.063-.208.095-.52.095-.934v-.415a.969.969 0 0 0 .096-.415v-3.632c0-.415-.031-.726-.096-.934v-.415c0-.138-.032-.207-.095-.207v-.311c0-.346-.065-.865-.193-1.557a.994.994 0 0 1-.096-.415.994.994 0 0 0-.095-.415c0-.07-.033-.104-.096-.104v-.207c0-.07-.032-.104-.097-.104v-.208a.856.856 0 0 1-.095-.31.858.858 0 0 0-.096-.312.824.824 0 0 1-.095-.311.834.834 0 0 0-.098-.312c-.063-.069-.095-.138-.095-.207 0-.07-.033-.139-.096-.208l-.192-.415-.096-.103c0-.07-.032-.139-.096-.208a.305.305 0 0 1-.095-.208c-.065-.069-.097-.138-.097-.207h-.096l.096.207v.208c.065.07.097.208.097.415v.207c.063 0 .095.07.095.208 0 .208.033.38.096.519v.829c.065.07.096.174.096.312 0 .623.032 1.107.097 1.453v1.66c.063.346.095.9.095 1.66v3.943zm-19.766 10.687c0-.346-.032-.726-.097-1.141v-3.528a105.406 105.406 0 0 1-.095-4.358c0-1.383-.033-2.698-.096-3.943a14.256 14.256 0 0 1-.095-1.66c0-.553-.033-1.072-.098-1.556 0-.554-.03-1.038-.095-1.453v-1.141a4.21 4.21 0 0 0-.096-.934v-1.246c-.064 0-.095.035-.095.105v.415c0 .207-.032.45-.097.726v.934c0 .346-.031.726-.096 1.141v1.453a12.06 12.06 0 0 0-.095 1.556c0 .553-.033 1.107-.096 1.66a75.987 75.987 0 0 0-.097 3.943c0 1.383-.03 2.836-.096 4.358v2.283c0 .415-.032.83-.095 1.245v10.791c0 .553.032.968.095 1.245v5.707c.065.691.096 1.383.096 2.075v2.075c.065.623.097 1.245.097 1.868.063.622.096 1.21.096 1.763 0 .485.032 1.003.095 1.557v1.349c.065.415.096.795.096 1.141v1.038c.065.276.097.484.097.622v.519c0 .07.03.104.095.104v-.623-.622c.064-.346.096-.692.096-1.038v-1.141c.065-.415.095-.865.095-1.35a13.42 13.42 0 0 0 .098-1.556c0-.553.03-1.14.095-1.763v-1.868c.063-.623.096-1.314.096-2.075v-2.075c.065-.761.095-1.522.095-2.283v-2.283c0-.553.033-.934.097-1.141v-10.895zm15.83-15.252c0-.9-.03-2.007-.095-3.32a14.18 14.18 0 0 0-.672-3.736c-.384-1.176-.991-2.179-1.822-3.009-.767-.9-1.919-1.349-3.454-1.349h-3.455c-.703.07-1.31.38-1.822.934a2.806 2.806 0 0 0-.767 1.971v23.346c0 .761.255 1.418.767 1.972.512.553 1.119.83 1.822.83h3.455c1.535 0 2.687-.416 3.454-1.246.83-.83 1.438-1.833 1.822-3.009.384-1.245.609-2.49.672-3.735.065-1.314.095-2.42.095-3.32v-6.33zm6.429 56.86s-.03-.035-.096-.104l-.095-.104-.193-.415c0-.138-.063-.277-.19-.415-.066-.208-.129-.415-.194-.623a21.775 21.775 0 0 1-.19-.934 10.857 10.857 0 0 1-.193-1.971 5.77 5.77 0 0 1-.096-1.038v-6.848-1.452c0-.484.032-1.003.096-1.557v-1.452c0-.484-.031-.969-.096-1.453v-1.453c0-.691-.032-1.175-.095-1.452 0-.484-.033-.934-.096-1.349 0-.484-.032-.934-.097-1.349a49.855 49.855 0 0 0-.384-2.49 21.775 21.775 0 0 0-.191-.934 6.362 6.362 0 0 0-.288-1.037 17.821 17.821 0 0 1-.288-.83 2.665 2.665 0 0 0-.287-.623 5.051 5.051 0 0 1-.288-.519l-.193-.415c-.063 0-.128-.035-.191-.104-.065 0-.096-.034-.096-.103l.096.103c0 .07.032.139.095.208v.207c.065 0 .096.07.096.208.065.069.097.138.097.207 0 .07.03.173.096.312.063.276.16.76.288 1.452.063.346.095.692.095 1.038l.192 1.037v1.142c.064.346.097.76.097 1.245V148.88c.063.208.095.45.095.727v1.452l.191 1.245c.065.415.098.83.098 1.245.063.415.127.796.19 1.142.128.415.224.795.289 1.141.063.277.16.588.288.934.128.346.223.622.287.83.064.208.16.415.288.623l.193.207c.063.07.095.138.095.208l.096.104.383.414h.096z" id="Shape" fill="#F4EDE8"/><ellipse id="Oval" fill="#999591" transform="matrix(1 0 0 -1 0 248.107)" cx="359.797" cy="124.053" rx="5.14" ry="5.559"/><ellipse id="Oval" fill="#999591" transform="matrix(1 0 0 -1 0 248.107)" cx="32.553" cy="124.053" rx="5.14" ry="5.559"/></g></g></g></svg>